<svg xmlns="http://www.w3.org/2000/svg" xmlns:xlink="http://www.w3.org/1999/xlink" width="500" zoomAndPan="magnify" viewBox="0 0 375 374.999991" height="500" preserveAspectRatio="xMidYMid meet" version="1.0"><defs><g/><clipPath id="4c62809b40"><path d="M 17.582031 87 L 357.332031 87 L 357.332031 238.546875 L 17.582031 238.546875 Z M 17.582031 87 " clip-rule="nonzero"/></clipPath></defs><g clip-path="url(#4c62809b40)"><path fill="#c1ff72" d="M 287.261719 90.4375 C 261.679688 96.65625 233.3125 127.964844 216.804688 130.457031 C 216.460938 130 216.121094 129.527344 215.804688 129.007812 C 210.398438 118.570312 207.152344 106.125 208.195312 105.019531 C 202.632812 110.910156 195.339844 117.269531 187.449219 117.914062 C 179.554688 117.316406 172.214844 111 166.617188 105.136719 C 167.667969 106.238281 164.488281 118.699219 159.148438 129.167969 C 158.835938 129.6875 158.5 130.15625 158.160156 130.621094 C 141.652344 128.230469 112.5625 99.035156 87.492188 91.015625 C 51.652344 79.546875 26.582031 99.8125 17.597656 119.699219 C 29.800781 118.984375 46.78125 123.164062 59.949219 132.625 C 74.21875 142.886719 73.84375 154.609375 70.207031 167.179688 C 94.273438 164.992188 131.261719 172.460938 136.132812 204.445312 C 158.835938 200.570312 179.65625 226.636719 187.136719 238.011719 C 187.011719 238.542969 187.902344 238.539062 187.777344 238.011719 C 195.191406 226.59375 216.542969 200.40625 239.273438 204.148438 C 243.957031 172.132812 280.902344 164.449219 304.980469 166.496094 C 301.273438 153.949219 300.832031 142.222656 315.039062 131.886719 C 328.152344 122.347656 345.105469 118.070312 357.316406 118.710938 C 348.214844 98.882812 317.546875 83.074219 287.261719 90.4375 Z M 287.261719 90.4375 " fill-opacity="1" fill-rule="nonzero"/></g><g fill="#7ed957" fill-opacity="1"><g transform="translate(159.814448, 268.402454)"><g><path d="M 1.703125 -5.171875 C 1.816406 -3.953125 2.257812 -2.976562 3.03125 -2.25 C 3.800781 -1.519531 4.800781 -1.15625 6.03125 -1.15625 C 6.894531 -1.15625 7.664062 -1.332031 8.34375 -1.6875 C 9.019531 -2.050781 9.53125 -2.492188 9.875 -3.015625 L 11.0625 -2.203125 C 10.476562 -1.390625 9.785156 -0.769531 8.984375 -0.34375 C 8.179688 0.0703125 7.195312 0.28125 6.03125 0.28125 C 5.132812 0.28125 4.316406 0.132812 3.578125 -0.15625 C 2.835938 -0.457031 2.195312 -0.875 1.65625 -1.40625 C 1.113281 -1.9375 0.691406 -2.566406 0.390625 -3.296875 C 0.0976562 -4.035156 -0.046875 -4.859375 -0.046875 -5.765625 C -0.046875 -6.640625 0.0820312 -7.441406 0.34375 -8.171875 C 0.613281 -8.910156 1.003906 -9.550781 1.515625 -10.09375 C 2.023438 -10.632812 2.640625 -11.054688 3.359375 -11.359375 C 4.085938 -11.660156 4.90625 -11.8125 5.8125 -11.8125 C 6.789062 -11.8125 7.644531 -11.644531 8.375 -11.3125 C 9.113281 -10.988281 9.726562 -10.535156 10.21875 -9.953125 C 10.707031 -9.367188 11.070312 -8.671875 11.3125 -7.859375 C 11.550781 -7.054688 11.671875 -6.160156 11.671875 -5.171875 Z M 9.875 -6.625 C 9.675781 -7.882812 9.210938 -8.820312 8.484375 -9.4375 C 7.765625 -10.0625 6.875 -10.375 5.8125 -10.375 C 5.257812 -10.375 4.753906 -10.285156 4.296875 -10.109375 C 3.835938 -9.929688 3.425781 -9.675781 3.0625 -9.34375 C 2.707031 -9.019531 2.410156 -8.625 2.171875 -8.15625 C 1.929688 -7.6875 1.78125 -7.175781 1.71875 -6.625 Z M 9.875 -6.625 "/></g></g></g><g fill="#7ed957" fill-opacity="1"><g transform="translate(173.65809, 268.402454)"><g><path d="M 11.109375 -2.203125 C 10.617188 -1.441406 9.953125 -0.835938 9.109375 -0.390625 C 8.265625 0.0546875 7.257812 0.28125 6.09375 0.28125 C 5.195312 0.28125 4.367188 0.132812 3.609375 -0.15625 C 2.859375 -0.457031 2.21875 -0.875 1.6875 -1.40625 C 1.15625 -1.9375 0.738281 -2.566406 0.4375 -3.296875 C 0.144531 -4.035156 0 -4.859375 0 -5.765625 C 0 -6.640625 0.132812 -7.445312 0.40625 -8.1875 C 0.675781 -8.9375 1.0625 -9.578125 1.5625 -10.109375 C 2.070312 -10.640625 2.691406 -11.054688 3.421875 -11.359375 C 4.148438 -11.660156 4.960938 -11.8125 5.859375 -11.8125 C 6.210938 -11.8125 6.570312 -11.769531 6.9375 -11.6875 C 7.3125 -11.601562 7.664062 -11.476562 8 -11.3125 C 8.332031 -11.144531 8.628906 -10.941406 8.890625 -10.703125 C 9.148438 -10.472656 9.347656 -10.195312 9.484375 -9.875 L 9.484375 -11.546875 L 11.015625 -11.546875 L 11.015625 -6.921875 L 9.484375 -6.921875 C 9.484375 -7.429688 9.390625 -7.894531 9.203125 -8.3125 C 9.015625 -8.738281 8.757812 -9.101562 8.4375 -9.40625 C 8.125 -9.71875 7.742188 -9.957031 7.296875 -10.125 C 6.847656 -10.289062 6.367188 -10.375 5.859375 -10.375 C 5.160156 -10.375 4.550781 -10.253906 4.03125 -10.015625 C 3.519531 -9.773438 3.09375 -9.445312 2.75 -9.03125 C 2.40625 -8.625 2.144531 -8.140625 1.96875 -7.578125 C 1.789062 -7.023438 1.703125 -6.421875 1.703125 -5.765625 C 1.703125 -5.097656 1.800781 -4.484375 2 -3.921875 C 2.195312 -3.367188 2.488281 -2.890625 2.875 -2.484375 C 3.257812 -2.078125 3.722656 -1.753906 4.265625 -1.515625 C 4.804688 -1.273438 5.414062 -1.15625 6.09375 -1.15625 C 6.945312 -1.15625 7.707031 -1.320312 8.375 -1.65625 C 9.050781 -2 9.566406 -2.453125 9.921875 -3.015625 Z M 11.109375 -2.203125 "/></g></g></g><g fill="#7ed957" fill-opacity="1"><g transform="translate(187.501733, 268.402454)"><g><path d="M 10.9375 0 L 9.21875 0 L 9.21875 -7.125 C 9.21875 -8.15625 8.992188 -8.953125 8.546875 -9.515625 C 8.109375 -10.085938 7.390625 -10.375 6.390625 -10.375 C 5.765625 -10.375 5.195312 -10.226562 4.6875 -9.9375 C 4.175781 -9.65625 3.742188 -9.269531 3.390625 -8.78125 C 3.035156 -8.300781 2.765625 -7.75 2.578125 -7.125 C 2.390625 -6.5 2.296875 -5.847656 2.296875 -5.171875 L 2.296875 0 L 0.609375 0 L 0.609375 -16.15625 L 2.296875 -16.15625 L 2.296875 -8.640625 C 3.117188 -10.753906 4.578125 -11.8125 6.671875 -11.8125 C 9.515625 -11.8125 10.9375 -10.25 10.9375 -7.125 Z M 10.9375 0 "/></g></g></g><g fill="#7ed957" fill-opacity="1"><g transform="translate(201.345375, 268.402454)"><g><path d="M 11.84375 -5.734375 C 11.84375 -4.835938 11.695312 -4.019531 11.40625 -3.28125 C 11.125 -2.539062 10.71875 -1.910156 10.1875 -1.390625 C 9.65625 -0.867188 9.015625 -0.457031 8.265625 -0.15625 C 7.523438 0.132812 6.695312 0.28125 5.78125 0.28125 C 4.882812 0.28125 4.0625 0.132812 3.3125 -0.15625 C 2.570312 -0.457031 1.9375 -0.867188 1.40625 -1.390625 C 0.875 -1.910156 0.460938 -2.539062 0.171875 -3.28125 C -0.109375 -4.019531 -0.25 -4.835938 -0.25 -5.734375 C -0.25 -6.609375 -0.109375 -7.421875 0.171875 -8.171875 C 0.460938 -8.929688 0.875 -9.578125 1.40625 -10.109375 C 1.9375 -10.640625 2.570312 -11.054688 3.3125 -11.359375 C 4.0625 -11.660156 4.882812 -11.8125 5.78125 -11.8125 C 6.695312 -11.8125 7.523438 -11.660156 8.265625 -11.359375 C 9.015625 -11.054688 9.65625 -10.640625 10.1875 -10.109375 C 10.71875 -9.578125 11.125 -8.929688 11.40625 -8.171875 C 11.695312 -7.421875 11.84375 -6.609375 11.84375 -5.734375 Z M 10.140625 -5.734375 C 10.140625 -6.390625 10.039062 -6.992188 9.84375 -7.546875 C 9.65625 -8.109375 9.367188 -8.597656 8.984375 -9.015625 C 8.609375 -9.441406 8.148438 -9.773438 7.609375 -10.015625 C 7.066406 -10.253906 6.457031 -10.375 5.78125 -10.375 C 5.101562 -10.375 4.492188 -10.253906 3.953125 -10.015625 C 3.410156 -9.773438 2.953125 -9.441406 2.578125 -9.015625 C 2.210938 -8.597656 1.929688 -8.109375 1.734375 -7.546875 C 1.546875 -6.992188 1.453125 -6.390625 1.453125 -5.734375 C 1.453125 -5.078125 1.546875 -4.46875 1.734375 -3.90625 C 1.929688 -3.351562 2.210938 -2.875 2.578125 -2.46875 C 2.953125 -2.0625 3.410156 -1.738281 3.953125 -1.5 C 4.492188 -1.269531 5.101562 -1.15625 5.78125 -1.15625 C 6.457031 -1.15625 7.066406 -1.269531 7.609375 -1.5 C 8.148438 -1.738281 8.609375 -2.0625 8.984375 -2.46875 C 9.367188 -2.875 9.65625 -3.351562 9.84375 -3.90625 C 10.039062 -4.46875 10.140625 -5.078125 10.140625 -5.734375 Z M 10.140625 -5.734375 "/></g></g></g></svg>