<svg xmlns="http://www.w3.org/2000/svg" xmlns:xlink="http://www.w3.org/1999/xlink" width="500" zoomAndPan="magnify" viewBox="0 0 375 374.999991" height="500" preserveAspectRatio="xMidYMid meet" version="1.0"><defs><clipPath id="3c470fbd25"><path d="M 17.582031 116 L 357.332031 116 L 357.332031 266.945312 L 17.582031 266.945312 Z M 17.582031 116 " clip-rule="nonzero"/></clipPath></defs><g clip-path="url(#3c470fbd25)"><path fill="#c1ff72" d="M 287.261719 118.835938 C 261.679688 125.054688 233.3125 156.367188 216.804688 158.855469 C 216.460938 158.398438 216.121094 157.925781 215.804688 157.410156 C 210.398438 146.96875 207.152344 134.523438 208.195312 133.417969 C 202.632812 139.308594 195.339844 145.671875 187.449219 146.3125 C 179.554688 145.71875 172.214844 139.398438 166.617188 133.535156 C 167.667969 134.636719 164.488281 147.101562 159.148438 157.570312 C 158.835938 158.089844 158.5 158.554688 158.160156 159.019531 C 141.652344 156.632812 112.5625 127.433594 87.492188 119.417969 C 51.652344 107.945312 26.582031 128.210938 17.597656 148.097656 C 29.800781 147.386719 46.78125 151.566406 59.949219 161.027344 C 74.21875 171.285156 73.84375 183.007812 70.207031 195.578125 C 94.273438 193.390625 131.261719 200.863281 136.132812 232.84375 C 158.835938 228.96875 179.65625 255.035156 187.136719 266.410156 C 187.011719 266.945312 187.902344 266.941406 187.777344 266.410156 C 195.191406 254.992188 216.542969 228.804688 239.273438 232.546875 C 243.957031 200.53125 280.902344 192.847656 304.980469 194.894531 C 301.273438 182.347656 300.832031 170.621094 315.039062 160.285156 C 328.152344 150.75 345.105469 146.46875 357.316406 147.109375 C 348.214844 127.285156 317.546875 111.472656 287.261719 118.835938 Z M 287.261719 118.835938 " fill-opacity="1" fill-rule="nonzero"/></g></svg>